<svg width="145" height="40" viewBox="0 0 145 40" fill="none" xmlns="http://www.w3.org/2000/svg">
<g clip-path="url(#clip0_2024_54)">
<mask id="mask0_2024_54" style="mask-type:luminance" maskUnits="userSpaceOnUse" x="108" y="4" width="37" height="32">
<path d="M145 4H108V36H145V4Z" fill="white"/>
</mask>
<g mask="url(#mask0_2024_54)">
<path d="M108 4L115.12 16.31H120.81L116.54 8.93H127.93L119.39 23.7L122.24 28.62L136.46 4H108Z" fill="#3CECD6"/>
<path d="M136.46 8.93H142.15L126.5 36L123.65 31.08L136.46 8.93Z" fill="#3CECD6"/>
<path d="M145 4L142.15 8.92L139.31 4H145Z" fill="#3CECD6"/>
</g>
<path d="M39.52 15.28C43.4 15.28 46.34 17.51 46.34 22.46V31.76H41.57V23.19C41.57 20.56 40.35 19.36 38.24 19.36C35.95 19.36 34.3 20.75 34.3 23.74V31.77H29.53V15.52H34.09V17.42C35.37 16.03 37.3 15.28 39.53 15.28H39.52Z" fill="white"/>
<path d="M50.66 31.76V15.52H55.43V31.76H50.66Z" fill="white"/>
<path d="M80.92 15.28C84.83 15.28 87.65 17.51 87.65 22.46V31.76H82.88V23.19C82.88 20.56 81.69 19.36 79.76 19.36C77.62 19.36 76.12 20.72 76.12 23.62V31.77H71.35V23.2C71.35 20.57 70.22 19.37 68.23 19.37C66.12 19.37 64.62 20.73 64.62 23.63V31.78H59.85V15.52H64.41V17.39C65.63 16 67.47 15.28 69.58 15.28C71.87 15.28 73.83 16.16 74.99 17.94C76.3 16.28 78.44 15.28 80.92 15.28Z" fill="white"/>
<path d="M100.2 28.23C101.06 28.23 101.81 28.11 102.46 27.87C103.13 27.61 103.75 27.21 104.32 26.66L106.86 29.38C105.31 31.13 103.05 32.01 100.07 32.01C98.21 32.01 96.57 31.66 95.15 30.95C93.72 30.23 92.62 29.23 91.85 27.96C91.08 26.69 90.69 25.25 90.69 23.64C90.69 22.03 91.07 20.62 91.82 19.35C92.59 18.06 93.64 17.07 94.97 16.36C96.32 15.64 97.82 15.27 99.49 15.27C101.06 15.27 102.49 15.6 103.77 16.27C105.05 16.91 106.07 17.86 106.83 19.11C107.61 20.34 107.99 21.8 107.99 23.49L95.82 25.81C96.17 26.62 96.71 27.22 97.44 27.62C98.19 28.02 99.11 28.22 100.19 28.22L100.2 28.23ZM99.5 18.84C98.3 18.84 97.32 19.22 96.57 19.99C95.82 20.75 95.42 21.81 95.38 23.16L103.39 21.62C103.16 20.77 102.71 20.1 102.01 19.6C101.32 19.1 100.48 18.85 99.5 18.85V18.84Z" fill="white"/>
<path d="M0 32H13.5L16.2 27.2H8.1L13.5 17.6L21.6 32H27L13.5 8L0 32Z" fill="white"/>
<path d="M53.04 13.26C54.4925 13.26 55.67 12.0825 55.67 10.63C55.67 9.17749 54.4925 8 53.04 8C51.5875 8 50.41 9.17749 50.41 10.63C50.41 12.0825 51.5875 13.26 53.04 13.26Z" fill="white"/>
</g>
<defs>
<clipPath id="clip0_2024_54">
<rect width="145" height="32" fill="white" transform="translate(0 4)"/>
</clipPath>
</defs>
</svg>
