<?xml version="1.0" encoding="utf-8"?>
<!-- Generator: Adobe Illustrator 21.0.2, SVG Export Plug-In . SVG Version: 6.00 Build 0)  -->
<svg version="1.1" id="Ebene_1" xmlns="http://www.w3.org/2000/svg" xmlns:xlink="http://www.w3.org/1999/xlink" x="0px" y="0px"
	 viewBox="0 0 85.6 48" style="enable-background:new 0 0 85.6 48;" xml:space="preserve">
<style type="text/css">
	.st0{fill:#EB0A28;}
	.st1{fill:#FFFFFF;}
</style>
<g>
	<polygon id="Fill-1_1_" class="st0" points="0,48 48,48 48,0 0,0 	"/>
	<g id="Group-15_1_" transform="translate(11.242105, 7.452632)">
		<path id="Fill-9_1_" class="st1" d="M21,11.2l-4.6,4.6c1.3,1,2.4,2.5,2.4,4.7c0,3.6-2.9,6.2-6.5,6.2c-4,0-6.3-2.4-7.5-5.1
			l-4.6,4.6c2,3.5,5.9,6.8,12,6.8c7.1,0,13.1-5.4,13.1-12.6C25.4,16.4,23.4,13.2,21,11.2"/>
		<polygon id="Fill-11_1_" class="st1" points="12.7,17.6 8.4,13.3 21.1,0.6 25.4,4.9 		"/>
		<polygon id="Fill-13_1_" class="st1" points="6.4,6 0.5,0.1 19.8,0.1 13.9,6 		"/>
	</g>
	<g id="sat_1_" transform="translate(51.663158, 3.284211)">
		<path id="Fill-2_1_" d="M8.8,8.1C8,7.2,6.9,6.6,5.8,6.6c-1.4,0-1.7,0.6-1.7,1.1c0,2.1,6.6,1.1,6.6,5.8c0,2.3-2.2,3.9-5,3.9
			c-2.4,0.1-4.4-0.9-5.6-2.4l1.8-1.8c0.9,1,2.2,1.7,3.7,1.7c1.3,0,2-0.6,2-1.4C7.6,11,1,12.1,1,7.6c0-2.1,1.8-3.5,4.7-3.5
			C7.8,4.2,9.3,5,10.5,6.4L8.8,8.1z"/>
		<path id="Fill-4_1_" d="M23.5,9.1v8h-2.8l-0.1-1.3c-0.9,1.1-2.3,1.7-4.1,1.7c-2.6,0-4.2-1.5-4.2-3.7c0-2.7,2.4-4.3,8.2-4.8V8.9
			c0-1.6-1-2.2-2.5-2.2c-1.1,0-2,0.4-3.1,1.4l-1.8-1.7c1-1.1,2.8-2.1,5.1-2.1C21.4,4.2,23.5,5.9,23.5,9.1 M20.5,12.3v-1.1
			c-3.6,0.3-5.1,1.2-5.1,2.5c0,0.9,0.6,1.4,1.8,1.4C18.6,15.1,20.5,14.1,20.5,12.3"/>
		<path id="Fill-6_1_" d="M33.9,16c-1.1,1.2-2.5,1.5-3.5,1.5c-2.9,0-4.4-1.8-4.4-4.3V3l3-3v4.6h3.8V7H29v6c0,1.1,0.3,1.8,1.5,1.8
			c0.5,0,0.9-0.1,1.5-0.6L33.9,16z"/>
	</g>
</g>
</svg>
