<svg width="148" height="20" viewBox="0 0 148 20" fill="none" xmlns="http://www.w3.org/2000/svg">
    <path fillRule="evenodd" clipRule="evenodd"
        d="M44.9961 0H44.6299C43.7335 0.0304509 43.0109 0.0823301 42.1677 0.272554C38.904 1.00826 37.0652 3.53944 37.6766 6.90107C38.2137 9.85367 40.8213 11.1195 43.4826 11.6157C44.288 11.7658 45.0918 11.925 45.8937 12.0931C46.4994 12.2199 47.0093 12.3717 47.4234 12.5484C48.2711 12.91 48.6482 13.4886 48.5926 14.4311C48.5129 15.7781 47.4073 16.3055 46.2141 16.4078C45.114 16.5025 44.0189 16.4517 43.0067 16.0566C41.8011 15.586 41.4631 14.4897 41.4466 13.3082C41.4465 13.3006 41.4435 13.2935 41.4381 13.2882C41.4328 13.2829 41.4256 13.28 41.4181 13.28H37.2045C37.2015 13.28 37.1986 13.2806 37.1958 13.2817C37.193 13.2829 37.1905 13.2845 37.1884 13.2867C37.1862 13.2888 37.1845 13.2913 37.1834 13.2941C37.1822 13.2969 37.1816 13.2999 37.1816 13.3029C37.1876 15.5593 38.0789 17.5386 40.0337 18.7472C41.5454 19.6818 43.3293 19.9592 45.0761 19.9998H45.4986C46.7042 19.972 47.8148 19.8547 48.9557 19.5013C50.9786 18.875 52.5789 17.4946 53.0175 15.3548C53.192 14.5031 53.1987 13.6271 53.0374 12.7266C52.7374 11.051 51.6888 9.88525 50.188 9.17436C49.3309 8.7686 48.4234 8.46647 47.4655 8.26797C47.0613 8.18421 46.6832 8.11134 46.3184 8.04102L46.3183 8.04101L46.3183 8.04101L46.3183 8.04101L46.3183 8.041L46.3182 8.041C45.6778 7.91755 45.0782 7.80198 44.4497 7.64918C43.4976 7.41798 42.31 7.05144 42.0907 5.93303C41.8113 4.5056 42.7352 3.75335 44.0332 3.60034C44.726 3.51839 45.428 3.53731 46.1393 3.65711C47.5545 3.89546 48.2951 4.78116 48.3597 6.20747C48.36 6.21385 48.3627 6.21987 48.3673 6.22428C48.3718 6.22869 48.3778 6.23115 48.3841 6.23115H52.5041C52.5144 6.23115 52.5194 6.22601 52.5191 6.21574C52.4916 5.52151 52.3973 4.90885 52.2363 4.37778C51.2174 1.01728 48.1648 0.0571424 44.9961 0ZM59.7652 0H55.134C55.1335 4.00297 55.1338 8.00595 55.1348 12.0089C55.1355 14.207 55.6489 16.2844 57.3251 17.816C59.0441 19.3867 61.1255 19.934 63.3849 19.9998H63.8262C64.9225 19.9683 65.9065 19.8592 66.9487 19.5525C69.3959 18.8322 71.2148 17.0499 71.8386 14.5487C72.0441 13.7258 72.1177 12.8661 72.118 11.9991C72.1198 7.99943 72.12 3.99972 72.1188 0H67.4813C67.4805 4.07265 67.4805 8.14529 67.4813 12.2179C67.4816 14.1416 66.5142 15.6205 64.5259 15.9198C62.9639 16.1547 61.1146 15.8668 60.2591 14.348C59.8677 13.6536 59.7708 12.857 59.7716 12.0743C59.7758 8.04955 59.7737 4.02478 59.7652 0ZM74.1024 0H83.7553C85.7375 0.0432327 87.8479 0.409771 89.2089 2.01953C89.761 2.67241 90.0985 3.42792 90.2214 4.28605C90.4919 6.16987 89.909 7.97061 88.2392 9.00143C88.0469 9.12022 87.8488 9.23163 87.645 9.33563C87.6303 9.34315 87.6305 9.3503 87.6458 9.35706C87.7725 9.4122 87.8991 9.46746 88.0255 9.52285C89.906 10.3488 91.1142 12.1871 91.1007 14.245C91.089 16.0093 90.4663 17.5694 89.047 18.6329C87.6563 19.6746 85.7931 19.9713 84.0415 19.9998H74.1009V0.683453C74.1009 0.637875 74.0991 0.580919 74.0971 0.517431L74.0971 0.517177V0.517156V0.517131V0.517102V0.517066V0.517024C74.0922 0.360115 74.0861 0.163409 74.1024 0ZM78.8346 3.82741L78.8492 8.03489C78.8492 8.03899 78.85 8.04305 78.8516 8.04683C78.8531 8.05062 78.8554 8.05406 78.8583 8.05696C78.8612 8.05985 78.8647 8.06215 78.8685 8.06372C78.8722 8.06529 78.8763 8.0661 78.8804 8.0661L83.4931 8.04993C84.0466 8.04796 84.5766 7.83532 84.9667 7.45878C85.3567 7.08223 85.5748 6.57263 85.573 6.04205L85.5723 5.77363C85.5714 5.51087 85.5165 5.25086 85.4108 5.00846C85.305 4.76606 85.1505 4.54601 84.9561 4.36088C84.7616 4.17576 84.531 4.02918 84.2774 3.92952C84.0238 3.82985 83.7522 3.77906 83.4781 3.78004L78.8654 3.79621C78.8572 3.79631 78.8493 3.79964 78.8436 3.80548C78.8378 3.81132 78.8346 3.8192 78.8346 3.82741ZM79.1125 16.207C80.5629 16.216 82.0135 16.2184 83.4642 16.2141C84.7006 16.2108 85.9584 15.8138 86.1792 14.4179C86.3298 13.4653 86.0722 12.3638 85.1028 11.9382C84.6862 11.7555 84.23 11.6623 83.7342 11.6585C82.3872 11.649 81.0403 11.6493 79.6935 11.6593L79.6517 11.6596H79.6516C79.4439 11.6611 79.1858 11.663 78.9622 11.6514C78.9287 11.6496 78.8953 11.6538 78.862 11.6638C78.849 11.6678 78.8424 11.6766 78.8424 11.6901V16.1766C78.8424 16.1921 78.8501 16.2002 78.8654 16.201C78.9465 16.2045 79.0289 16.2065 79.1125 16.207ZM102.577 0H91.6934L91.6885 4.19282C91.6885 4.2234 91.7037 4.23869 91.7343 4.23869H97.7795C97.7872 4.23869 97.7947 4.24177 97.8002 4.24727C97.8057 4.25277 97.8088 4.26023 97.8088 4.26801V19.9998H102.578L102.577 0ZM104.551 0H109.294L109.299 19.9998H104.551V0ZM122.189 0H111.275L111.28 19.9998H116.041L116.042 4.25899C116.042 4.2536 116.044 4.24844 116.048 4.24463C116.052 4.24082 116.057 4.23869 116.062 4.23869L122.156 4.23906C122.179 4.23906 122.191 4.22741 122.191 4.2041L122.189 0ZM124.165 0H128.937L128.935 15.742C128.935 15.7471 128.937 15.7519 128.941 15.7555C128.944 15.7591 128.949 15.7611 128.954 15.7611H135.065C135.077 15.7611 135.083 15.7674 135.083 15.7799L135.079 19.9998H124.167L124.165 0ZM147.996 0H137.056L137.056 19.9998H147.971L147.972 15.7777C147.972 15.7667 147.967 15.7611 147.956 15.7611H141.825C141.814 15.7611 141.807 15.7555 141.806 15.7442C141.797 15.6649 141.801 15.5765 141.804 15.4993C141.806 15.4594 141.808 15.4226 141.807 15.3916C141.796 14.2555 141.793 13.1193 141.797 11.983C141.797 11.9449 141.801 11.9073 141.81 11.8702C141.811 11.8649 141.814 11.8601 141.819 11.8567C141.823 11.8533 141.828 11.8514 141.834 11.8514H147.956C147.968 11.8514 147.975 11.8451 147.975 11.8326L147.974 7.90256C147.974 7.8785 147.962 7.86647 147.938 7.86647H141.819C141.813 7.86647 141.807 7.8639 141.802 7.85932C141.798 7.85473 141.795 7.84852 141.795 7.84204L141.802 4.25936C141.802 4.24533 141.809 4.23831 141.823 4.23831L147.996 4.23944C147.997 4.23944 147.997 4.23919 147.998 4.23873C147.998 4.23852 147.999 4.23828 147.999 4.23801C148 4.23709 148.001 4.23585 148.001 4.23455L147.996 0Z"
        fill="white" />
    <path
        d="M12.5453 0H22.7247L22.7304 8.64504C22.7304 8.65857 22.7371 8.66534 22.7506 8.66534H23.9694C23.9804 8.66534 23.9888 8.6607 23.9945 8.65143L29.5068 0H35.0622C35.0798 0.0481199 35.031 0.0706761 35.0089 0.102255C32.7051 3.41576 30.4004 6.72901 28.0946 10.042C28.0874 10.0525 28.0875 10.0631 28.095 10.0736L35.1775 19.9837C35.1792 19.9864 35.179 19.9888 35.1767 19.9908C35.1737 19.9938 35.1716 19.9968 35.1704 19.9998H29.6138L24.0204 11.9285C24.018 11.925 24.0148 11.9221 24.011 11.9202C24.0072 11.9182 24.003 11.9172 23.9987 11.9172H22.7506C22.7384 11.9172 22.7321 11.9235 22.7319 11.936C22.683 14.4213 22.7225 16.9175 22.7229 19.404C22.7229 19.5476 22.7443 19.7983 22.7202 19.9998H12.5449L12.5453 0Z"
        fill="white" />
    <path fillRule="evenodd" clipRule="evenodd"
        d="M5.05291 0H4.95038C3.29712 0.0669167 1.98689 0.73057 1.01967 1.99096C0.372189 2.83456 0.0292944 3.8541 0 4.92251V5.05409C0.0463202 6.43428 0.540069 7.59668 1.48125 8.54128C2.29511 9.35819 3.34107 9.83901 4.49745 9.96307C7.34051 10.268 9.89137 8.03677 9.97738 5.20747C10.0645 2.34509 7.90536 0.0958638 5.05291 0ZM6.33564 19.9994H6.43704C7.33641 19.964 8.10545 19.6596 8.74417 19.0862C9.76421 18.1708 10.204 16.7099 9.88177 15.3817C9.38789 13.3457 7.37972 12.0633 5.3355 12.7058C3.53877 13.2708 2.53262 15.1637 2.86462 16.9633C3.13654 18.4358 4.24296 19.649 5.749 19.9302C5.89522 19.9575 6.09077 19.9806 6.33564 19.9994Z"
        fill="white" />
</svg>