<svg version="1.2" xmlns="http://www.w3.org/2000/svg" viewBox="0 0 1254 1254" width="1254" height="1254">
	<style>
		.s0 { fill: #34b65f; transform-box: fill-box; transform-origin: center; animation: logo-bob 1.6s ease-in-out infinite; }
		@keyframes logo-bob {
			0%, 100% { transform: translateY(0) scale(1); }
			25% { transform: translateY(-34px) scale(1.14); }
			50% { transform: translateY(0) scale(1); }
			75% { transform: translateY(16px) scale(0.94); }
		}
	</style>
	<path id="Path 0" class="s0" d="m129.93 423.66c-1.01 0.29-5.13 10.13-11.77 28.14-5.61 15.23-10.45 28.6-10.75 29.7-0.46 1.67 0.08 2.12 3.27 2.73 2.1 0.4 43.64 0.8 92.32 0.87 48.68 0.08 94.08 0.43 100.89 0.77l12.4 0.63c-12.95 14.72-30.01 33.82-46.25 51.93-16.25 18.1-33.79 37.68-38.98 43.5-5.19 5.81-21.17 23.58-35.5 39.48-14.33 15.9-30.93 34.35-36.88 41-5.96 6.65-13.2 14.79-16.1 18.09-2.9 3.3-11.95 13.65-20.12 23-8.17 9.35-19.3 22.4-24.75 29-7.2 8.72-9.53 12.2-8.55 12.73 0.73 0.41 22.38 0.75 48.09 0.75 25.71 0.01 47.76-0.38 49-0.87 1.24-0.49 6.13-4.88 10.87-9.75 4.74-4.87 19.6-21.01 33.03-35.86 13.42-14.85 38.56-42.75 55.88-62.01 17.31-19.25 38.22-42.62 46.47-51.92 8.25-9.3 23.32-26.17 33.5-37.5 10.18-11.33 25.48-28.47 34.01-38.09 8.53-9.61 17.21-19.5 19.29-21.98 2.78-3.31 5.93-9.94 11.87-25 4.45-11.27 9.56-24.55 11.37-29.5l3.28-9c-7.22-1.17-77.94-1.46-161.82-1.39-83.88 0.07-153.2 0.32-154.07 0.55zm334.34 27.59c-5.59 15.54-10.43 29.37-10.76 30.75l-0.6 2.5c57.03 1.2 82.14 2 92.59 2.56 10.45 0.56 21.48 1.68 24.5 2.48 3.02 0.81 7.3 2.54 9.5 3.84 2.2 1.3 5.37 3.89 7.05 5.74 1.68 1.86 4.09 6.08 5.35 9.38 1.91 4.98 2.22 7.35 1.85 14-0.34 6.09-1.12 9.43-3.29 14-1.83 3.85-5.39 8.54-9.91 13.07-5.81 5.83-8.46 7.66-15.05 10.39-4.63 1.91-10.95 3.63-15 4.08-3.85 0.44-41.87 1.07-84.5 1.4l-77.5 0.62c-8.66 9.64-18.79 20.99-28.1 31.44-9.3 10.45-18.71 21.17-20.91 23.83-3.3 4-3.73 4.99-2.49 5.73 0.84 0.51 24.6 0.94 54 0.98l52.5 0.08c44.95 52.75 63.77 74.88 70.82 83.22 7.05 8.34 16.16 19.1 20.25 23.91 5.83 6.87 8.24 8.96 11.18 9.74 2.26 0.6 24.9 1 57 1 34.51 0.01 53.43-0.34 53.75-0.99 0.27-0.55-4.08-6.29-9.69-12.75-5.6-6.46-14.94-17.18-20.75-23.81-5.81-6.64-15.57-17.89-21.7-25-6.13-7.12-19.06-22.17-28.75-33.44-9.69-11.28-17.61-21.06-17.61-21.75 0-0.69 1.69-1.52 3.75-1.84 2.06-0.33 8.25-1.71 13.75-3.07 5.5-1.36 14.27-4.07 19.5-6.02 5.23-1.95 13.77-5.74 19-8.42 5.23-2.68 13.33-7.76 18-11.29 4.67-3.52 11.89-9.94 16.03-14.26 4.15-4.32 9.37-10.55 11.62-13.85 2.24-3.3 5.55-8.92 7.35-12.5 1.8-3.58 5.04-11.9 7.19-18.5 3.42-10.47 4-13.6 4.51-24.5 0.37-7.84 0.13-15.67-0.64-21-0.68-4.68-2.63-12.1-4.34-16.5-1.71-4.4-5.21-11.15-7.79-15-2.58-3.85-8.06-10.15-12.18-14-4.12-3.85-9.91-8.45-12.87-10.23-2.96-1.78-9.88-5.27-15.38-7.76-8.07-3.65-11.74-4.72-19-5.5-4.95-0.54-36.69-0.98-70.53-0.99l-61.54-0.02zm671.23 101.42c-4.4 0.8-10.7 2.36-14 3.46-3.3 1.1-9.15 3.85-13 6.11-3.85 2.26-9.94 7.07-13.53 10.68-3.6 3.62-8.13 9.28-10.07 12.58-1.94 3.3-4.4 8.25-5.47 11-1.51 3.9-1.93 7.52-1.93 16.5 0 11.19 0.08 11.61 3 15.66 1.65 2.28 4.8 5.29 7 6.67 2.2 1.39 6.02 3.01 8.5 3.6 2.47 0.59 14.85 1.68 27.5 2.42 12.65 0.74 24.01 1.87 25.25 2.5 1.24 0.63 2.52 2.16 2.85 3.4 0.34 1.24 0 3.58-0.75 5.2-0.74 1.62-2.93 3.84-4.85 4.93-3.27 1.84-5.94 2-41 2.4l-37.5 0.43c-8.81 20.37-12.3 28.65-13.44 31.54-1.94 4.94-1.96 5.29-0.31 5.95 0.96 0.39 20.65 0.73 43.75 0.75 29.78 0.04 44.62-0.33 51-1.27 4.95-0.72 11.92-2.23 15.5-3.33 3.57-1.11 9.2-3.43 12.5-5.15 3.33-1.73 8.9-6.05 12.5-9.68 3.57-3.61 7.7-8.8 9.18-11.54 1.47-2.74 3.84-8.58 5.27-12.98 1.96-6.06 2.59-10.06 2.58-16.5-0.01-7.29-0.4-9.28-2.77-13.96-1.7-3.37-4.29-6.54-6.76-8.29-2.2-1.56-6.36-3.72-9.25-4.79-3.39-1.27-10.13-2.34-19-3.02-7.56-0.58-18.25-1.44-23.75-1.9-8.78-0.74-10.22-1.13-11.82-3.19q-1.83-2.35-1.19-4.85c0.35-1.38 1.52-3.4 2.6-4.5 1.48-1.5 3.91-2.17 9.69-2.68 4.25-0.37 12.44-0.71 18.22-0.75 5.77-0.04 19.27 0.62 30 1.47 10.72 0.85 19.55 1.42 19.61 1.26 0.05-0.17 2.48-6.38 5.38-13.8 2.9-7.42 5.87-15.53 6.6-18 0.72-2.48 1.23-4.62 1.11-4.78-0.11-0.15-3.8-0.69-8.2-1.21-4.4-0.51-17-1.62-28-2.47-11-0.84-25.63-1.49-32.5-1.43-6.88 0.06-16.1 0.76-20.5 1.56zm-450.29 14.08c-2.78 8.11-11.77 33.42-19.99 56.25-8.22 22.83-17.37 48.55-20.33 57.17-2.97 8.61-5.02 16.04-4.56 16.5 0.46 0.45 29.04 0.99 63.5 1.18l62.67 0.35c10.27-29.22 13.09-38.04 12.88-38.45-0.21-0.41-11.29-0.75-24.63-0.75-13.34 0-30.37-0.33-37.84-0.75l-13.6-0.75 5.48-15c43.17-0.95 59.31-1.29 63.71-1.37l8-0.14c8.95-25.18 11.53-32.83 11.52-33.24-0.01-0.41-12.06-0.75-26.77-0.76-14.71 0-30.42-0.34-34.9-0.75l-8.16-0.74 5.46-15c64.59-0.38 73.12-0.72 74.05-1.71 0.66-0.71 4.16-9.17 7.78-18.79 3.61-9.63 6.55-17.61 6.54-17.75-0.01-0.14-28.31-0.25-62.89-0.25h-62.86zm147.41-14c-0.25 0.41-8.18 22.35-17.61 48.75-9.43 26.4-20.68 57.67-24.99 69.5-4.31 11.83-7.99 22.62-8.18 24l-0.35 2.5 126 0.5c9.07-25.96 11.77-34.63 11.85-36l0.15-2.5c-57.73-0.39-74.5-0.84-74.51-1.25-0.01-0.41 1.22-4.47 2.75-9.01l2.76-8.26 71-0.01c8.93-25.16 11.51-32.81 11.51-33.22 0-0.41-9.12-0.81-20.26-0.88-11.13-0.07-26.83-0.41-34.89-0.75l-14.64-0.62 5.55-14c55.59-1.14 72.63-1.68 73.73-1.94 1.56-0.37 3.41-4.27 8.42-17.77 3.53-9.51 6.57-17.85 6.75-18.54 0.26-0.99-12.65-1.25-62.12-1.25-34.35 0-62.66 0.34-62.92 0.75zm141.88 0.5c-0.24 0.69-6.8 18.58-14.57 39.75-7.78 21.17-16.16 44.12-18.63 51-2.47 6.87-7.6 21.27-11.4 32-3.81 10.72-6.92 20.06-6.91 20.75 0 0.99 12.52 1.25 59.25 1.23 32.59 0 59.79-0.34 60.44-0.75 0.65-0.4 4.09-8.83 7.65-18.73 3.56-9.9 6.29-18.34 6.07-18.75-0.22-0.41-15.93-0.75-34.91-0.75-18.97 0-34.5-0.23-34.5-0.5 0-0.28 4.24-12.09 9.43-26.25 5.18-14.16 13.96-37.9 19.51-52.75 5.55-14.85 10.08-27.11 10.08-27.25-0.01-0.14-11.5-0.25-25.54-0.25-19.52 0-25.63 0.29-25.97 1.25z"/>
</svg>
