<svg xmlns="http://www.w3.org/2000/svg" viewBox="0 0 736.38 154.26"><defs><style>.cls-1{fill:#fff;}.cls-2{fill:#f37121;}.cls-3{fill:#3da648;}</style></defs><title>Asset 3</title><g id="Layer_2" data-name="Layer 2"><g id="Layer_1-2" data-name="Layer 1"><path class="cls-1" d="M123.08,32.52l-47.73,48v42.81L48,139V80.5l-48-48H32.56L61.65,61.76,90.74,32.52Z"/><path class="cls-1" d="M224.21,102.66l-20.62,20.66h-47L136,102.69V16.82l27.4,15.82V103h33.44V32.52h27.39Z"/><path class="cls-1" d="M343.59,60.53,319.58,93H268v30.32L240.63,139V32.52H323Zm-28.11,1.78-7.17-9.48H268V72.38h40.19Z"/><path class="cls-1" d="M457.61,60.53,433.61,93H378.93v30.32L351.54,139V32.52H437ZM429.5,62.31l-7.17-9.48h-43.4V72.38h43.32Z"/><path class="cls-2" d="M567.8,32.52,547.64,52.83H520.7v70.49L493.31,139V52.83H466.38L446.21,32.52Z"/><path class="cls-2" d="M700,32.52l-49.25,90.8H625.2l-49.25-90.8h27.84l34.1,62.22L672,32.52Z"/><path class="cls-3" d="M506.27,12.46H714.55v141.8l21.3-36.88.52-104.92S737.41,1,722.86,0H529.64Z"/></g></g></svg>