<svg width="135" height="40" viewBox="0 0 135 40" fill="none" xmlns="http://www.w3.org/2000/svg">
    <g clip-path="url(#clip0_2729_528)">
        <path d="M0.602928 1.66632H0C0 9.59909 0 17.5319 0.0396592 25.4845C0.113656 25.6029 0.121382 25.7323 0.128783 25.8564C0.131299 25.8985 0.133777 25.94 0.138807 25.9803C0.317274 28.0428 0.892333 30.0062 1.86398 31.8505C2.63734 33.3181 3.62882 34.5873 4.83843 35.7178C5.67127 36.4912 6.60326 37.1457 7.59474 37.701C9.28026 38.6331 11.1046 39.1884 13.0082 39.4263C13.0516 39.4318 13.0965 39.4327 13.1421 39.4337C13.263 39.4363 13.3887 39.4391 13.504 39.5255H15.5663C16.3594 39.4858 17.1724 39.4065 17.9656 39.2478C20.3254 38.7917 22.4471 37.8199 24.3111 36.3326C24.9853 35.7971 25.6199 35.222 26.1553 34.5278C26.2259 34.4395 26.2972 34.3512 26.3686 34.2627C26.6983 33.8542 27.0319 33.4409 27.3252 33.0008C28.9909 30.4623 29.8039 27.6462 29.8039 24.6119C29.8171 19.5753 29.8127 14.5475 29.8083 9.51683C29.8061 7.00037 29.8039 4.48319 29.8039 1.9638V1.78531C29.8039 1.70598 29.7643 1.64648 29.6651 1.64648H29.5906C28.0605 1.64648 26.816 2.86913 26.7807 4.39074V24.2197C26.7807 30.7684 21.4719 36.0772 14.9232 36.0772C8.3745 36.0772 3.0657 30.7684 3.0657 24.2197V4.19286C2.94283 2.87538 1.91063 1.82192 0.602928 1.66632Z" fill="url(#paint0_linear_2729_528)"/>
        <path d="M0.267334 1.64648H3.078V1.66632H3.44741C5.68816 1.66632 7.71078 3.37186 8.1272 5.57321C8.20652 5.95002 8.22635 6.32682 8.22635 6.70363V24.2946C8.22635 24.9094 8.30567 25.5241 8.38499 26.1389C8.46431 26.7934 8.70226 27.3883 8.97988 27.9436C9.35664 28.7171 9.91187 29.3715 10.5662 29.9268C11.6172 30.7994 12.8665 31.2556 14.2149 31.3746C15.3452 31.4737 16.4358 31.3746 17.5066 30.9581C19.4896 30.2045 20.719 28.7369 21.3139 26.7339C21.5519 25.9604 21.6312 25.1473 21.6312 24.3342V6.60447C21.6312 5.13691 22.1666 3.88749 23.2572 2.8959C24.1694 2.08279 25.2203 1.64648 26.4498 1.64648H29.5907C28.0606 1.64648 26.8161 2.86913 26.7808 4.39074V24.2197C26.7808 30.7684 21.472 36.0772 14.9233 36.0772C8.37453 36.0772 3.06574 30.7684 3.06574 24.2197V4.19286C2.93253 2.76451 1.7305 1.64648 0.267334 1.64648Z" fill="url(#paint1_linear_2729_528)"/>
        <g clip-path="url(#clip1_2729_528)">
            <path fill-rule="evenodd" clip-rule="evenodd" d="M104.264 13.5458C104.945 15.5198 105.316 17.6356 105.316 19.8441C105.316 30.4778 96.7023 39.0937 86.0713 39.0937C79.589 39.0937 73.8592 35.8873 70.37 30.9795L77.9753 24.9429V28.4874C77.9753 29.6707 78.5586 30.685 79.5836 31.2739C80.6085 31.8628 81.7807 31.8628 82.8002 31.2739L97.7546 22.6362C98.7795 22.0418 99.3629 21.0275 99.3629 19.8497C99.3629 18.6717 98.7795 17.652 97.7546 17.063L95.8519 15.967L101.843 13.2295L104.264 13.5458Z" fill="url(#paint2_linear_2729_528)"/>
            <path fill-rule="evenodd" clip-rule="evenodd" d="M71.0071 31.8198C70.8708 31.6508 70.7345 31.4762 70.6091 31.3017L77.9745 24.2072V28.4879C77.9745 29.6712 78.5579 30.6855 79.5829 31.2744C80.6078 31.8633 81.78 31.8633 82.7994 31.2744L97.7538 22.6367C98.7787 22.0423 99.3621 21.028 99.3621 19.8502C99.3621 18.6722 98.7787 17.6525 97.7538 17.0635L96.6307 16.4092C97.732 16.5564 100.267 15.7167 101.325 20.9899C102.382 26.263 98.0318 28.9841 87.0518 34.2628C77.7783 38.718 72.4409 33.543 71.0071 31.8198Z" fill="url(#paint3_linear_2729_528)"/>
            <path fill-rule="evenodd" clip-rule="evenodd" d="M82.827 31.312C82.7071 31.4048 82.5436 31.5357 82.331 31.6883C82.5436 31.5357 82.7071 31.4048 82.827 31.312ZM70.6095 31.3012C68.2325 28.1056 66.8259 24.1358 66.8259 19.8441C66.8259 11.3045 72.3868 4.06818 80.0848 1.54883C75.8323 6.99106 73.837 9.13414 73.9188 22.3689C74.006 35.6037 81.5895 32.1791 81.6658 32.1464C79.3978 33.5915 74.6984 35.6364 70.6095 31.3012ZM82.3037 31.7101C82.1619 31.8137 81.9983 31.9228 81.8239 32.0428C81.9983 31.9282 82.1619 31.8137 82.3037 31.7101Z" fill="url(#paint4_linear_2729_528)"/>
            <path fill-rule="evenodd" clip-rule="evenodd" d="M86.0717 0.594727C87.9525 0.594727 89.768 0.867384 91.4908 1.36907L88.5468 11.7409L82.8006 8.41998C81.7757 7.83104 80.6035 7.83104 79.584 8.41998C78.5645 9.01437 77.9757 10.0287 77.9757 11.2065V28.4821C77.9757 29.6654 78.559 30.6797 79.584 31.2686C80.6089 31.8576 81.7811 31.8576 82.8006 31.2686L83.035 31.1323C83.035 31.1323 82.5226 31.5958 81.6665 32.1412C81.5957 32.1739 72.3876 36.3563 72.8564 22.3636C73.2817 9.60331 72.1313 6.99125 80.0856 1.54357C81.9665 0.927368 83.9836 0.594727 86.0717 0.594727Z" fill="url(#paint5_linear_2729_528)"/>
            <path fill-rule="evenodd" clip-rule="evenodd" d="M86.9918 0.616211C96.0309 1.04156 103.44 7.70529 105.01 16.3975C97.1431 11.5007 86.8228 3.38095 82.5158 4.49884C77.6201 5.78034 77.9744 11.2062 77.9744 11.2062C77.9744 11.2062 77.1294 3.09194 86.9918 0.616211Z" fill="url(#paint6_linear_2729_528)"/>
            <path fill-rule="evenodd" clip-rule="evenodd" d="M105.011 16.3976C105.212 17.5156 105.316 18.6662 105.316 19.844C105.316 23.6994 104.187 27.2821 102.241 30.2922C102.274 30.1777 104.351 20.3403 97.1491 16.7139L82.7998 8.41971C81.7749 7.83077 80.6027 7.83077 79.5832 8.41971C78.5638 9.0141 77.975 10.0284 77.975 11.2063C77.975 11.2063 77.6206 5.77494 82.5163 4.49891C86.8233 3.38101 96.4567 10.2192 105.011 16.3976Z" fill="url(#paint7_linear_2729_528)"/>
        </g>
        <path d="M38.3438 6.19669C36.8623 2.84702 33.8412 1.81839 31.9858 1.66625L34.821 1.66625C37.8153 1.64642 40.7897 3.43129 42.0786 6.42592C42.7097 7.88462 43.321 9.35324 43.9335 10.8248L43.9336 10.825L43.9338 10.8256C44.1872 11.4345 44.4408 12.0438 44.6961 12.6531C45.291 14.0712 45.8859 15.4842 46.4808 16.8973L46.4813 16.8984C47.076 18.311 47.6708 19.7236 48.2655 21.1412C48.4935 21.6866 48.7265 22.2369 48.9595 22.7873C49.1925 23.3376 49.4255 23.8879 49.6535 24.4333C49.7018 24.4815 49.737 24.5428 49.7697 24.6276C49.7565 24.6471 49.7406 24.6667 49.7211 24.6862C49.6869 24.5837 49.6528 24.5107 49.606 24.4544L51.4491 28.7974C51.4491 28.7974 51.7658 29.4855 52.5651 29.4874C53.3645 29.4894 53.6812 28.7974 53.6812 28.7974L64.1571 3.82925C64.6537 2.93233 65.8135 1.66788 67.898 1.66788C67.898 1.66788 67.5842 1.66788 67.0184 1.66625H67.6787C67.6965 1.66625 67.7162 1.66597 67.7369 1.66569C67.8314 1.66437 67.9449 1.66278 67.9761 1.68608C68.0033 1.71332 67.9624 1.81281 67.927 1.89886C67.9234 1.90742 67.92 1.91585 67.9166 1.92407C65.8742 6.94155 63.8119 11.959 61.7496 16.9765C61.6703 17.1748 61.586 17.3682 61.5017 17.5616C61.4175 17.7549 61.3332 17.9483 61.2539 18.1466C60.8663 19.1719 60.4472 20.1815 60.0263 21.1952L60.0263 21.1953C59.7797 21.7893 59.5325 22.3848 59.2907 22.9856C58.3092 25.3952 57.3226 27.7999 56.3361 30.2046C55.3496 32.6092 54.3631 35.0137 53.3815 37.4232C53.0336 38.2656 52.449 38.8036 51.6121 39.0529C52.3152 38.3902 52.0104 37.6844 51.8589 37.3335C51.8453 37.302 51.8329 37.2734 51.8226 37.2479C48.0402 28.504 40.0492 10.0523 38.3438 6.19669Z" fill="url(#paint8_linear_2729_528)"/>
        <path d="M45.8112 36.4419L45.8113 36.4422C45.8203 36.4639 45.8293 36.4855 45.8382 36.5072C45.8292 36.4855 45.8202 36.4637 45.8112 36.442L45.8112 36.4419Z" fill="url(#paint9_linear_2729_528)"/>
        <path d="M44.3193 32.8814L44.3186 32.88L44.3193 32.8814Z" fill="url(#paint10_linear_2729_528)"/>
        <path d="M64.1571 3.82846L53.6812 28.7966C53.6812 28.7966 53.3645 29.4886 52.5651 29.4867C51.7658 29.4847 51.449 28.7966 51.449 28.7966L49.606 24.4536C49.6528 24.5099 49.6869 24.5829 49.721 24.6854C49.8004 24.6061 49.8202 24.5267 49.84 24.4474C50.0879 23.8326 50.3358 23.2227 50.5837 22.6129C50.8315 22.0031 51.0794 21.3933 51.3272 20.7785L51.3306 20.7703C53.2529 16.053 55.1753 11.3358 57.0977 6.63831C57.6331 5.34924 58.4262 4.23865 59.5169 3.38588C60.667 2.47361 61.9956 1.89848 63.463 1.71999C63.7802 1.68033 64.0975 1.6605 64.4346 1.6605H65.0462L65.0463 1.66016C65.0463 1.66016 65.5653 1.66016 66.4721 1.66362C67.379 1.66709 67.898 1.66709 67.898 1.66709C65.8134 1.66709 64.6536 2.93154 64.1571 3.82846Z" fill="url(#paint11_linear_2729_528)"/>
        <path d="M31.9858 1.66609C33.8412 1.81823 36.8622 2.84686 38.3438 6.19653C40.0492 10.0521 48.0402 28.5038 51.8226 37.2477C51.8329 37.2732 51.8452 37.3018 51.8588 37.3333C52.0104 37.6843 52.3152 38.39 51.6121 39.0527C51.5427 39.0734 51.4715 39.0921 51.3985 39.1088C51.2994 39.1286 51.1804 39.1286 51.0614 39.1286C50.7978 39.1286 50.5319 39.1264 50.2653 39.1242C49.7299 39.1198 49.1916 39.1154 48.662 39.1286C47.849 39.1485 46.7386 38.6923 46.2428 37.4826C46.099 37.1365 45.9552 36.7895 45.8112 36.4419C45.3197 35.2555 44.8255 34.0626 44.3194 32.8816L44.3193 32.8814C43.5658 31.0768 42.8123 29.2721 42.0588 27.4873C41.801 26.8923 41.5482 26.2924 41.2953 25.6924C41.0425 25.0925 40.7897 24.4926 40.5319 23.8977C39.9172 22.4103 39.2926 20.9229 38.6679 19.4355C38.0433 17.9481 37.4187 16.4607 36.8039 14.9733C36.2487 13.6644 35.6935 12.3357 35.1581 11.0268C34.1267 8.52177 33.0684 6.01678 32.0053 3.50062C31.7806 2.96897 31.5558 2.43683 31.331 1.90407C31.3111 1.84458 31.2715 1.76525 31.2318 1.68592C31.3072 1.65575 31.3827 1.66001 31.4494 1.66377C31.4703 1.66496 31.4904 1.66609 31.5094 1.66609H31.9858Z" fill="url(#paint12_linear_2729_528)"/>
    </g>
    <path d="M135 3.88725C134.703 4.64086 134.385 5.39447 134.088 6.14809C132.739 9.49968 131.391 12.8314 130.062 16.183C129.963 16.4409 129.963 16.4409 129.686 16.4409C128.536 16.4409 127.405 16.4409 126.255 16.4409C125.997 16.4409 125.997 16.4409 125.878 16.183C124.946 13.9024 124.014 11.6217 123.102 9.34103C122.369 7.55615 121.655 5.79111 120.921 4.00624C120.881 3.92691 120.842 3.84758 120.862 3.74842C120.941 3.70876 121.04 3.72859 121.119 3.72859C122.527 3.72859 123.915 3.72859 125.323 3.72859C125.64 3.72859 125.601 3.68893 125.7 4.00624C126.414 6.26708 127.148 8.52792 127.861 10.7888C127.901 10.9078 127.941 11.0466 128 11.2251C128.139 10.8284 128.238 10.4714 128.357 10.1343C128.992 8.09162 129.646 6.04893 130.281 4.00624C130.38 3.68893 130.36 3.72859 130.657 3.72859C132.105 3.72859 133.552 3.72859 135 3.72859C135 3.76825 135 3.82775 135 3.88725Z" fill="#CC4A95"/>
    <path d="M116.896 0C116.896 1.03126 116.896 2.08235 116.876 3.11361C116.876 3.25244 116.876 3.39126 116.876 3.54992C116.876 3.68874 116.915 3.7284 117.054 3.7284C117.352 3.7284 117.669 3.7284 117.966 3.7284C118.601 3.7284 119.216 3.7284 119.85 3.7284C120.049 3.7284 120.068 3.7284 120.068 3.92672C120.068 4.89849 120.068 5.89008 120.068 6.86185C120.068 7.08 120.068 7.08 119.85 7.08C118.998 7.08 118.165 7.08 117.312 7.08C116.995 7.08 116.995 7.04034 116.995 7.37748C116.995 8.62689 116.995 9.89614 116.995 11.1455C116.995 11.5224 117.094 11.8595 117.352 12.1371C117.609 12.4148 117.947 12.5536 118.323 12.5536C118.799 12.5536 119.295 12.5536 119.771 12.5536C119.83 12.5536 119.91 12.5536 119.969 12.5536C120.088 12.5536 120.148 12.5933 120.148 12.7123C120.148 12.7519 120.148 12.8114 120.148 12.8511C120.148 13.922 120.148 14.9929 120.148 16.0837C120.148 16.1432 120.148 16.2027 120.148 16.2622C120.148 16.3812 120.108 16.4208 119.989 16.4208C119.751 16.4208 119.533 16.4208 119.295 16.4208C118.601 16.4208 117.927 16.4208 117.233 16.4208C116.578 16.4208 115.944 16.3613 115.329 16.1432C113.862 15.6276 113.029 14.5566 112.712 13.0494C112.632 12.6329 112.593 12.1966 112.593 11.7802C112.593 10.3523 112.593 8.90454 112.593 7.47664C112.593 7.43698 112.593 7.39731 112.593 7.35765C112.593 7.08 112.593 7.08 112.295 7.08C111.7 7.08 111.105 7.08 110.53 7.08C110.273 7.08 110.253 7.08 110.253 6.82219C110.253 6.5842 110.213 6.32639 110.273 6.10824C110.332 5.87025 110.57 5.75126 110.729 5.57277C111.462 4.7795 112.216 3.98622 112.969 3.17311C113.901 2.18151 114.833 1.18992 115.765 0.198319C115.825 0.138824 115.904 0.0991597 115.884 0C116.261 0 116.578 0 116.896 0Z" fill="#CC4A95"/>
    <defs>
        <linearGradient id="paint0_linear_2729_528" x1="7.53396" y1="20.586" x2="26.063" y2="35.4793" gradientUnits="userSpaceOnUse">
            <stop stop-color="#21BFEF"/>
            <stop offset="1" stop-color="#1385C4"/>
        </linearGradient>
        <linearGradient id="paint1_linear_2729_528" x1="27.1399" y1="5.48717" x2="2.38933" y2="5.48717" gradientUnits="userSpaceOnUse">
            <stop stop-color="#1784C5"/>
            <stop offset="1" stop-color="#25A4DE"/>
        </linearGradient>
        <linearGradient id="paint2_linear_2729_528" x1="70.3678" y1="26.1611" x2="105.316" y2="26.1611" gradientUnits="userSpaceOnUse">
            <stop stop-color="#7B519D"/>
            <stop offset="1" stop-color="#DD3F8D"/>
        </linearGradient>
        <linearGradient id="paint3_linear_2729_528" x1="70.8495" y1="28.5114" x2="101.319" y2="24.6107" gradientUnits="userSpaceOnUse">
            <stop stop-color="#7C519D"/>
            <stop offset="0.5098" stop-color="#D1438D"/>
            <stop offset="1" stop-color="#C42871"/>
        </linearGradient>
        <linearGradient id="paint4_linear_2729_528" x1="70.7247" y1="2.56359" x2="79.4094" y2="32.7578" gradientUnits="userSpaceOnUse">
            <stop stop-color="#84519D"/>
            <stop offset="0.5216" stop-color="#BA509A"/>
            <stop offset="1" stop-color="#D83888"/>
        </linearGradient>
        <linearGradient id="paint5_linear_2729_528" x1="82.1635" y1="32.7556" x2="82.1635" y2="0.594481" gradientUnits="userSpaceOnUse">
            <stop stop-color="#C22770"/>
            <stop offset="0.5216" stop-color="#D2428C"/>
            <stop offset="1" stop-color="#98519D"/>
        </linearGradient>
        <linearGradient id="paint6_linear_2729_528" x1="77.9566" y1="8.50788" x2="105.008" y2="8.50788" gradientUnits="userSpaceOnUse">
            <stop stop-color="#D63F8E"/>
            <stop offset="1" stop-color="#D9519D"/>
        </linearGradient>
        <linearGradient id="paint7_linear_2729_528" x1="77.9698" y1="17.3345" x2="105.316" y2="17.3345" gradientUnits="userSpaceOnUse">
            <stop stop-color="#C12770"/>
            <stop offset="1" stop-color="#DD519C"/>
        </linearGradient>
        <linearGradient id="paint8_linear_2729_528" x1="34.8677" y1="3.85105" x2="67.985" y2="3.85105" gradientUnits="userSpaceOnUse">
            <stop stop-color="#0B6BB1"/>
            <stop offset="0.473958" stop-color="#21529E"/>
            <stop offset="1" stop-color="#53519D"/>
        </linearGradient>
        <linearGradient id="paint9_linear_2729_528" x1="34.8677" y1="3.85105" x2="67.985" y2="3.85105" gradientUnits="userSpaceOnUse">
            <stop stop-color="#0B6BB1"/>
            <stop offset="0.473958" stop-color="#21529E"/>
            <stop offset="1" stop-color="#53519D"/>
        </linearGradient>
        <linearGradient id="paint10_linear_2729_528" x1="34.8677" y1="3.85105" x2="67.985" y2="3.85105" gradientUnits="userSpaceOnUse">
            <stop stop-color="#0B6BB1"/>
            <stop offset="0.473958" stop-color="#21529E"/>
            <stop offset="1" stop-color="#53519D"/>
        </linearGradient>
        <linearGradient id="paint11_linear_2729_528" x1="51.4508" y1="10.7582" x2="51.4508" y2="28.505" gradientUnits="userSpaceOnUse">
            <stop stop-color="#3F529E"/>
            <stop offset="1" stop-color="#4B2A6D"/>
        </linearGradient>
        <linearGradient id="paint12_linear_2729_528" x1="41.6441" y1="1.66113" x2="41.6441" y2="39.1292" gradientUnits="userSpaceOnUse">
            <stop stop-color="#209AD5"/>
            <stop offset="1" stop-color="#0A68AE"/>
        </linearGradient>
        <clipPath id="clip0_2729_528">
            <rect width="135" height="39.525" fill="white"/>
        </clipPath>
        <clipPath id="clip1_2729_528">
            <rect width="38.4992" height="38.4992" fill="white" transform="translate(66.8258 0.594727)"/>
        </clipPath>
    </defs>
</svg>
