<svg xmlns="http://www.w3.org/2000/svg" viewBox="0 0 160.2 48">
    <title>logo</title>
    <path
        d="M136.2,48H24A24.07,24.07,0,0,1,0,24H0A24.07,24.07,0,0,1,24,0H136.2a24.07,24.07,0,0,1,24,24h0A24.14,24.14,0,0,1,136.2,48Z"
        style="fill:#243743"/>
    <polygon points="16.37 14.52 16.37 34.02 32.07 24.02 16.37 14.52" style="fill:#fff"/>
    <rect x="37.04" y="7.78" width="70.8" height="36" style="fill:none"/>
    <g style="isolation:isolate">
        <path
            d="M50.54,29.32a5.54,5.54,0,0,1-2.09,4.57,9.07,9.07,0,0,1-5.81,1.67,13.64,13.64,0,0,1-6.06-1.29V30.06a25,25,0,0,0,3.67,1.36,10.86,10.86,0,0,0,2.75.4,3.91,3.91,0,0,0,2.29-.57,2,2,0,0,0,.8-1.7,1.87,1.87,0,0,0-.35-1.12,3.93,3.93,0,0,0-1-.95A26.56,26.56,0,0,0,41.93,26,13.16,13.16,0,0,1,39,24.25a6.65,6.65,0,0,1-1.57-2,5.64,5.64,0,0,1-.59-2.64,5.53,5.53,0,0,1,1.93-4.47,8,8,0,0,1,5.32-1.63,12.57,12.57,0,0,1,3.19.4,21.9,21.9,0,0,1,3.17,1.11L49,18.59a21.43,21.43,0,0,0-2.83-1,9.12,9.12,0,0,0-2.2-.28,2.92,2.92,0,0,0-2,.6,2,2,0,0,0-.69,1.57,1.94,1.94,0,0,0,.28,1,3,3,0,0,0,.89.86,27.17,27.17,0,0,0,2.88,1.5,11.45,11.45,0,0,1,4.12,2.88A5.62,5.62,0,0,1,50.54,29.32Z"
            style="fill:#fff"/>
        <path
            d="M53.44,33.18a2.46,2.46,0,0,1,.66-1.86A2.67,2.67,0,0,1,56,30.69a2.6,2.6,0,0,1,1.88.64,2.85,2.85,0,0,1,0,3.67,2.55,2.55,0,0,1-1.87.67,2.63,2.63,0,0,1-1.9-.65A2.44,2.44,0,0,1,53.44,33.18Z"
            style="fill:#fff"/>
        <path d="M71.24,35.27H66.7V17.63H60.89V13.85H77.06v3.78H71.24Z" style="fill:#fff"/>
        <path
            d="M99.79,24.53q0,5.32-2.64,8.17T89.6,35.56q-4.92,0-7.56-2.86T79.4,24.5q0-5.35,2.64-8.17t7.58-2.82q4.94,0,7.55,2.84T99.79,24.53Zm-15.63,0a9,9,0,0,0,1.36,5.41,4.77,4.77,0,0,0,4.07,1.82q5.43,0,5.43-7.22T89.63,17.3a4.8,4.8,0,0,0-4.09,1.82A8.91,8.91,0,0,0,84.16,24.53Z"
            style="fill:#fff"/>
    </g>
    <g style="isolation:isolate">
        <path
            d="M111.62,20.43a2,2,0,0,1-.74,1.62,3.21,3.21,0,0,1-2.05.59,4.83,4.83,0,0,1-2.15-.46V20.69a8.8,8.8,0,0,0,1.3.48,3.84,3.84,0,0,0,1,.14,1.38,1.38,0,0,0,.81-.2.69.69,0,0,0,.28-.6.66.66,0,0,0-.12-.4,1.4,1.4,0,0,0-.37-.33,9.47,9.47,0,0,0-1-.51,4.63,4.63,0,0,1-1-.63,2.33,2.33,0,0,1-.55-.7,2,2,0,0,1-.21-.93,2,2,0,0,1,.68-1.58,2.83,2.83,0,0,1,1.88-.58,4.45,4.45,0,0,1,1.13.14,7.72,7.72,0,0,1,1.12.39l-.52,1.25a7.7,7.7,0,0,0-1-.35,3.24,3.24,0,0,0-.78-.1,1,1,0,0,0-.7.21.7.7,0,0,0-.24.55.68.68,0,0,0,.1.37,1.08,1.08,0,0,0,.31.31,9.56,9.56,0,0,0,1,.53,4.06,4.06,0,0,1,1.46,1A2,2,0,0,1,111.62,20.43Z"
            style="fill:#fff"/>
        <path d="M118.35,22.54H114V15h4.36v1.32H115.6v1.66h2.57v1.32H115.6v2h2.76Z" style="fill:#fff"/>
        <path
            d="M122.54,19.63v2.91h-1.61V15h2.21a3.78,3.78,0,0,1,2.29.56,2,2,0,0,1,.74,1.71,2,2,0,0,1-.37,1.19,2.43,2.43,0,0,1-1,.82q1.71,2.56,2.23,3.3H125.2l-1.81-2.91Zm0-1.31h.52a2,2,0,0,0,1.13-.25.91.91,0,0,0,.36-.8.83.83,0,0,0-.37-.77,2.25,2.25,0,0,0-1.15-.23h-.49Z"
            style="fill:#fff"/>
        <path d="M128.94,22.54V15h1.61v7.58Z" style="fill:#fff"/>
        <path d="M137.82,22.54h-4.36V15h4.36v1.32h-2.76v1.66h2.57v1.32h-2.57v2h2.76Z" style="fill:#fff"/>
        <path d="M147.12,22.54h-2l-3.3-5.73h0q.1,1.52.1,2.17v3.57H140.4V15h2l3.29,5.68h0q-.08-1.48-.08-2.09V15h1.45Z"
              style="fill:#fff"/>
    </g>
    <g style="isolation:isolate">
        <path
            d="M111.62,31.28a2,2,0,0,1-.74,1.62,3.21,3.21,0,0,1-2.05.59,4.83,4.83,0,0,1-2.15-.46V31.54A8.85,8.85,0,0,0,108,32a3.86,3.86,0,0,0,1,.14,1.38,1.38,0,0,0,.81-.2.69.69,0,0,0,.28-.6.66.66,0,0,0-.12-.4,1.41,1.41,0,0,0-.37-.33,9.44,9.44,0,0,0-1-.51,4.65,4.65,0,0,1-1-.63,2.32,2.32,0,0,1-.55-.7,2,2,0,0,1-.21-.93,2,2,0,0,1,.68-1.58,2.83,2.83,0,0,1,1.88-.58,4.43,4.43,0,0,1,1.13.14,7.71,7.71,0,0,1,1.12.39l-.52,1.25a7.57,7.57,0,0,0-1-.35,3.24,3.24,0,0,0-.78-.1,1,1,0,0,0-.7.21.7.7,0,0,0-.24.55.68.68,0,0,0,.1.37,1.08,1.08,0,0,0,.31.31,9.86,9.86,0,0,0,1,.53,4.05,4.05,0,0,1,1.46,1A2,2,0,0,1,111.62,31.28Z"
            style="fill:#fff"/>
        <path d="M115.91,33.38h-1.61V27.14h-2.06V25.8H118v1.34h-2.06Z" style="fill:#fff"/>
        <path
            d="M120.75,30.47v2.91h-1.61V25.8h2.21a3.78,3.78,0,0,1,2.29.56,2.24,2.24,0,0,1,.37,2.9,2.44,2.44,0,0,1-1,.82q1.71,2.55,2.23,3.3h-1.78l-1.81-2.91Zm0-1.31h.52a2,2,0,0,0,1.13-.25.91.91,0,0,0,.36-.8.83.83,0,0,0-.37-.77,2.25,2.25,0,0,0-1.15-.23h-.49Z"
            style="fill:#fff"/>
        <path d="M130.51,33.38h-4.36V25.8h4.36v1.32h-2.76v1.66h2.57V30.1h-2.57v2h2.76Z" style="fill:#fff"/>
        <path
            d="M136.73,33.38l-.55-1.8h-2.76l-.55,1.8h-1.73l2.67-7.61h2l2.69,7.61Zm-.93-3.15-.86-2.77q-.1-.32-.14-.51-.17.66-1,3.28Z"
            style="fill:#fff"/>
        <path
            d="M142.63,33.38l-1.83-5.95h0q.1,1.81.1,2.42v3.53h-1.44V25.8h2.19l1.79,5.8h0l1.9-5.8h2.19v7.58H146V29.8c0-.17,0-.37,0-.59s0-.81.07-1.76h0l-2,5.94Z"
            style="fill:#fff"/>
    </g>
</svg>
